HIERARCHY
ROOT root
{
	OFFSET	0	13.1	24.9
	CHANNELS 6  Xposition Yposition Zposition Xrotation Yrotation Zrotation
	JOINT spine_1
	{
		OFFSET	0	9.99999	0
		CHANNELS 3  Xrotation Yrotation Zrotation
		JOINT spine_2
		{
			OFFSET	0	112	-10
			CHANNELS 3  Xrotation Yrotation Zrotation
			JOINT spine_3
			{
				OFFSET	0	206.5	19.3
				CHANNELS 3  Xrotation Yrotation Zrotation
				JOINT spine_4
				{
					OFFSET	0	110.4	14.6
					CHANNELS 3  Xrotation Yrotation Zrotation
					JOINT neck_1
					{
						OFFSET	0	71.8	-50.3
						CHANNELS 3  Xrotation Yrotation Zrotation
						JOINT neck_2
						{
							OFFSET	0	86.2	-25.8
							CHANNELS 3  Xrotation Yrotation Zrotation
							JOINT head_ee
							{
								OFFSET	0	179.8	-8.7
								CHANNELS 3  Xrotation Yrotation Zrotation
								End Site
								{
									OFFSET	1	0	0
								}
							}
						}
					}
					JOINT left_clavicle
					{
						OFFSET	-43.2	22.4	-70.8
						CHANNELS 3  Xrotation Yrotation Zrotation
						JOINT left_shoulder
						{
							OFFSET	-93.9	-5.79999	48.7
							CHANNELS 3  Xrotation Yrotation Zrotation
							JOINT left_elbow
							{
								OFFSET	-291.4	-30.8	15.2
								CHANNELS 3  Xrotation Yrotation Zrotation
								JOINT left_lowarm_twist
								{
									OFFSET	-110.7	-3.89999	13.6
									CHANNELS 3  Xrotation Yrotation Zrotation
									JOINT left_hand
									{
										OFFSET	-110.7	-3.89999	13.6
										CHANNELS 3  Xrotation Yrotation Zrotation
										JOINT left_ee
										{
											OFFSET	-80.8	-5.10001	12.1
											CHANNELS 3  Xrotation Yrotation Zrotation
											End Site
											{
												OFFSET	1	0	0
											}
										}
									}
								}
							}
						}
					}
					JOINT right_clavicle
					{
						OFFSET	43.2	22.4	-70.8
						CHANNELS 3  Xrotation Yrotation Zrotation
						JOINT right_shoulder
						{
							OFFSET	93.9	-5.79999	48.7
							CHANNELS 3  Xrotation Yrotation Zrotation
							JOINT right_elbow
							{
								OFFSET	291.4	-30.8	15.2
								CHANNELS 3  Xrotation Yrotation Zrotation
								JOINT right_lowarm_twist
								{
									OFFSET	110.7	-3.89999	13.6
									CHANNELS 3  Xrotation Yrotation Zrotation
									JOINT right_hand
									{
										OFFSET	110.7	-3.89999	13.6
										CHANNELS 3  Xrotation Yrotation Zrotation
										JOINT right_ee
										{
											OFFSET	80.8	-5.10001	12.1
											CHANNELS 3  Xrotation Yrotation Zrotation
											End Site
											{
												OFFSET	1	0	0
											}
										}
									}
								}
							}
						}
					}
				}
			}
		}
	}
	JOINT left_hip
	{
		OFFSET	-82.8	-127.5	0.300001
		CHANNELS 3  Xrotation Yrotation Zrotation
		JOINT left_knee
		{
			OFFSET	-28.2	-396.7	2.2
			CHANNELS 3  Xrotation Yrotation Zrotation
			JOINT left_ankle
			{
				OFFSET	-11.7	-411.3	35.4
				CHANNELS 3  Xrotation Yrotation Zrotation
				JOINT left_toes
				{
					OFFSET	0	-60	-88.6
					CHANNELS 3  Xrotation Yrotation Zrotation
					JOINT left_foot_ee
					{
						OFFSET	-22.5	-16.5	-42.2
						CHANNELS 3  Xrotation Yrotation Zrotation
						End Site
						{
							OFFSET	1	0	0
						}
					}
				}
			}
		}
	}
	JOINT right_hip
	{
		OFFSET	82.8	-127.5	0.300001
		CHANNELS 3  Xrotation Yrotation Zrotation
		JOINT right_knee
		{
			OFFSET	28.2	-396.7	2.2
			CHANNELS 3  Xrotation Yrotation Zrotation
			JOINT right_ankle
			{
				OFFSET	11.7	-411.3	35.4
				CHANNELS 3  Xrotation Yrotation Zrotation
				JOINT right_toes
				{
					OFFSET	0	-60	-88.6
					CHANNELS 3  Xrotation Yrotation Zrotation
					JOINT right_foot_ee
					{
						OFFSET	22.5	-16.5	-42.2
						CHANNELS 3  Xrotation Yrotation Zrotation
						End Site
						{
							OFFSET	1	0	0
						}
					}
				}
			}
		}
	}
}
MOTION
Frames: 10
Frame Time: 0.02
3233.03982648 709.086 -2003.69205747 5.05428799631 -17.9521706117 5.6269604024 -1.58975 0.0736989 -0.321921 -1.5897 0.0940342 -0.31658 -1.5902 0.166453 -0.285234 -1.59029 0.119316 -0.307943 -5.77965 16.535 1.92947 -5.66689 29.1812 5.01982 -0.0 0.0 -0.0 6.99951 2.21695 13.5803 -16.2333 -41.062 41.7216 1.4241 -35.1993 0.451762 -11.6431 -0.55256 1.37972 -1.79799 -21.4591 -21.3705 -0.0 0.0 -0.0 12.1143 18.5354 -24.2925 -13.3445 -17.0332 -63.2068 0.649225 17.8282 -0.101831 48.8191 0.885573 5.98711 1.94054 12.5943 -7.73741 0.0 0.0 0.0 -0.0546715 34.9991 -8.15738 -6.03733 0.201076 0.904307 37.3589 -27.699 -5.50132 -31.4663 0.0 0.0 -0.0 0.0 -0.0 19.3237 -1.01323 -9.10822 -73.1563 3.77489 -9.80134 11.6376 -4.3196 1.64759 -22.8241 0.0 0.0 0.0 0.0 0.0 
3205.78449385 710.429 -2024.57534974 4.75600182422 -12.1421008561 5.43620847367 -1.08871 -0.0366798 -0.421284 -1.08861 -0.00979831 -0.422764 -1.08847 0.0871533 -0.413799 -1.08871 0.0207083 -0.42237 -7.31734 16.8043 2.28401 -7.35118 29.7085 5.82868 -0.0 0.0 -0.0 6.98757 1.94652 13.5594 -13.1422 -39.5776 41.5754 1.4115 -34.9598 0.44452 -13.3644 -0.657679 1.57328 -1.77648 -21.6966 -21.3122 -0.0 0.0 -0.0 11.8488 17.0091 -23.7677 -14.273 -21.6622 -64.2852 0.599575 16.5422 -0.0871605 48.0357 0.831805 5.90245 2.13761 17.662 -6.76371 0.0 0.0 0.0 -1.26344 36.5686 -8.2099 -4.6197 0.162449 0.690183 37.6491 -24.9232 -5.37023 -32.1991 0.0 0.0 -0.0 0.0 -0.0 17.2005 -3.13604 -10.9593 -63.6547 2.60728 -8.91538 8.8326 -4.93755 1.26221 -23.4101 0.0 0.0 0.0 0.0 0.0 
3182.30581725 710.429 -2025.6986643 4.6996073132 -8.37596164511 5.11973265176 -1.08871 -0.0366798 -0.421284 -1.08861 -0.00979831 -0.422764 -1.08847 0.0871533 -0.413799 -1.08871 0.0207083 -0.42237 -7.31734 16.8043 2.28401 -7.35118 29.7085 5.82868 -0.0 0.0 -0.0 6.98757 1.94652 13.5594 -13.1422 -39.5776 41.5754 1.4115 -34.9598 0.44452 -13.3644 -0.657679 1.57328 -1.77648 -21.6966 -21.3122 -0.0 0.0 -0.0 11.8488 17.0091 -23.7677 -14.273 -21.6622 -64.2852 0.599575 16.5422 -0.0871605 48.0357 0.831805 5.90245 2.13761 17.662 -6.76371 0.0 0.0 0.0 -1.26344 36.5686 -8.2099 -4.6197 0.162449 0.690183 37.6491 -24.9232 -5.37023 -32.1991 0.0 0.0 -0.0 0.0 -0.0 17.2005 -3.13604 -10.9593 -63.6547 2.60728 -8.91538 8.8326 -4.93755 1.26221 -23.4101 0.0 0.0 0.0 0.0 0.0 
3130.48760399 709.812 -2035.13838125 3.90530639132 -3.24675480967 3.65841569437 -0.939421 0.0499703 -0.440906 -0.939317 0.0779247 -0.436833 -0.939863 0.174714 -0.407885 -0.940078 0.108104 -0.430359 -7.81184 16.3228 2.28731 -7.88915 28.8893 5.85309 -0.0 0.0 -0.0 7.38302 3.33801 14.307 -13.4588 -39.9687 40.9206 1.53328 -37.2157 0.516268 -14.0877 -0.703579 1.65366 -1.94394 -21.364 -22.3615 -0.0 0.0 -0.0 12.2932 17.7994 -24.7464 -16.6041 -18.9932 -61.9398 0.57251 15.8337 -0.0796149 47.8532 0.819442 5.88262 1.53706 15.8543 -3.55962 0.0 0.0 0.0 -2.05709 39.9513 -6.30234 -5.53157 0.187904 0.827808 37.1013 -26.1806 -5.38507 -32.7277 0.0 0.0 -0.0 0.0 -0.0 17.6238 -3.39873 -9.70332 -58.0306 1.99112 -8.30491 7.61824 -4.80238 1.09321 -24.0809 0.0 0.0 0.0 0.0 0.0 
3094.63744758 709.953 -2050.01896916 3.59389790808 0.59039210985 2.86453803871 -0.497374 0.194939 -0.450173 -0.497289 0.223189 -0.436857 -0.499 0.313326 -0.377471 -0.499113 0.24978 -0.422217 -9.4002 15.8395 2.8657 -9.6022 27.8456 6.70445 -0.0 0.0 -0.0 7.57504 5.26262 14.6225 -12.5998 -40.1315 41.4403 1.56404 -37.765 0.534986 -16.9873 -0.897707 1.96998 -1.89522 -20.582 -21.7113 -0.0 0.0 -0.0 12.7733 17.6749 -25.863 -18.5232 -23.8424 -61.599 0.580389 16.0405 -0.0817782 48.1593 0.840206 5.91585 1.25387 20.1429 0.244985 0.0 0.0 0.0 -4.80593 41.5097 -4.46805 -4.43918 0.157151 0.662985 37.4884 -26.0955 -5.41928 -32.7656 0.0 0.0 -0.0 0.0 -0.0 16.6216 -5.00051 -11.1124 -44.5122 0.778495 -6.61807 5.37165 -6.34343 0.775324 -25.2138 0.0 0.0 0.0 0.0 0.0 
3060.24791999 705.694 -2070.94429836 4.46785692167 3.94063141121 2.12846116874 -0.36731 0.0686626 -0.562496 -0.36714 0.104316 -0.556987 -0.368096 0.222412 -0.521201 -0.368449 0.137308 -0.549784 -9.06569 15.4907 2.57158 -9.23428 27.3332 6.2456 -0.0 0.0 -0.0 8.16313 5.51705 15.7331 -12.4226 -39.9276 42.2526 1.6069 -38.5172 0.561456 -18.8114 -1.02797 2.16383 -2.00944 -18.6497 -21.7524 -0.0 0.0 -0.0 12.3362 18.4427 -24.8087 -19.9345 -24.2808 -62.0266 0.461093 12.8665 -0.0519912 48.178 0.841482 5.91788 0.59867 19.4763 4.29384 0.0 0.0 0.0 -8.16099 43.2959 -2.89848 -5.14346 0.177338 0.769185 37.3603 -27.4051 -5.48348 -32.3702 0.0 0.0 -0.0 0.0 -0.0 22.5817 -5.29693 -8.37002 -28.4478 -0.100381 -4.31989 -4.15863 -9.33669 -0.614126 -28.4481 0.0 0.0 0.0 0.0 0.0 
3024.51440982 703.032 -2094.28487287 4.81526213955 5.80980976538 1.24397048906 -0.265356 0.173808 -0.563892 -0.265203 0.209338 -0.551689 -0.267207 0.322931 -0.493863 -0.267466 0.240883 -0.538664 -8.87973 14.5656 0.220495 -9.0413 27.1727 3.68016 -0.0 0.0 -0.0 8.5136 9.81693 16.1274 -12.0253 -42.4053 44.0447 1.60458 -38.477 0.560017 -23.0108 -1.35093 2.59385 -2.19231 -16.4663 -22.171 -0.0 0.0 -0.0 12.2125 17.0436 -24.5998 -21.2413 -24.2862 -60.1996 0.354022 9.94713 -0.0308084 47.7853 0.814863 5.87524 0.182669 19.148 6.92497 0.0 0.0 0.0 -11.6037 43.0029 -0.884341 -7.057 0.225576 1.05887 36.9349 -28.0809 -5.48144 -32.0329 0.0 0.0 -0.0 0.0 -0.0 23.4659 -5.85558 -7.63424 -16.7661 -0.320122 -2.54384 -11.5589 -10.3009 -1.7273 -29.6411 0.0 0.0 0.0 0.0 0.0 
3008.77480724 701.12 -2113.51590811 5.40012706388 7.16289591131 1.39784164823 -0.410561 0.101361 -0.684729 -0.410312 0.144726 -0.676892 -0.411942 0.288306 -0.629294 -0.412447 0.185305 -0.666926 -7.61449 14.1217 -1.11317 -7.65642 27.1264 1.94444 -0.0 0.0 -0.0 8.77774 9.80018 16.6128 -11.9546 -42.8819 43.83 1.47688 -36.1871 0.48256 -23.5511 -1.39476 2.64744 -2.25854 -15.5144 -22.2528 -0.0 0.0 -0.0 11.9955 16.5481 -24.1254 -21.8441 -24.2075 -60.0657 0.275285 7.76561 -0.0186842 47.5287 0.797625 5.84728 0.252873 18.6481 6.24258 0.0 0.0 0.0 -12.5972 43.2144 -1.02976 -9.08411 0.26609 1.36728 37.0174 -26.5677 -5.39879 -32.3269 0.0 0.0 -0.0 0.0 -0.0 21.5606 -7.43739 -8.56339 -8.79418 -0.260965 -1.32308 -12.7917 -9.42542 -1.91357 -29.9123 0.0 0.0 0.0 0.0 0.0 
3011.67758369 701.12 -2114.60448179 5.39582228399 6.79061671695 1.43328146676 -0.410561 0.101361 -0.684729 -0.410312 0.144726 -0.676892 -0.411942 0.288306 -0.629294 -0.412447 0.185305 -0.666926 -7.61449 14.1217 -1.11317 -7.65642 27.1264 1.94444 -0.0 0.0 -0.0 8.77774 9.80018 16.6128 -11.9546 -42.8819 43.83 1.47688 -36.1871 0.48256 -23.5511 -1.39476 2.64744 -2.25854 -15.5144 -22.2528 -0.0 0.0 -0.0 11.9955 16.5481 -24.1254 -21.8441 -24.2075 -60.0657 0.275285 7.76561 -0.0186842 47.5287 0.797625 5.84728 0.252873 18.6481 6.24258 0.0 0.0 0.0 -12.5972 43.2144 -1.02976 -9.08411 0.26609 1.36728 37.0174 -26.5677 -5.39879 -32.3269 0.0 0.0 -0.0 0.0 -0.0 21.5606 -7.43739 -8.56339 -8.79418 -0.260965 -1.32308 -12.7917 -9.42542 -1.91357 -29.9123 0.0 0.0 0.0 0.0 0.0 
3009.2517354 698.557 -2131.05944261 4.64853334624 6.4034430888 1.20753470033 -0.257963 -0.0385692 -0.71751 -0.257677 0.00716472 -0.71851 -0.257624 0.161177 -0.700236 -0.258304 0.0485677 -0.716902 -7.36202 14.5978 -0.283241 -7.39177 27.4023 2.81174 -0.0 0.0 -0.0 8.50948 8.72441 16.1991 -12.8265 -43.0094 43.4381 1.47055 -36.0698 0.478824 -23.6534 -1.40312 2.65754 -2.22994 -15.3914 -21.9955 -0.0 0.0 -0.0 11.8456 16.6082 -23.7797 -22.1114 -24.529 -59.6902 0.237175 6.70109 -0.0138854 47.6503 0.805775 5.86053 0.169587 18.4543 6.71704 0.0 0.0 0.0 -13.3705 43.092 0.00585943 -9.03242 0.265193 1.3594 36.5649 -26.2098 -5.33188 -32.6167 0.0 0.0 -0.0 0.0 -0.0 22.6188 -6.63548 -8.33811 -4.06805 -0.145987 -0.607123 -14.0298 -9.31048 -2.10133 -29.9984 0.0 0.0 0.0 0.0 0.0 
